<?xml version="1.0" encoding="UTF-8"?>
<svg version="1.1" xmlns="http://www.w3.org/2000/svg" width="256" height="256">
<path d="M0 0 C84.48 0 168.96 0 256 0 C256 84.48 256 168.96 256 256 C171.52 256 87.04 256 0 256 C0 171.52 0 87.04 0 0 Z " fill="#FBFBFB" transform="translate(0,0)"/>
<path d="M0 0 C0.33 0 0.66 0 1 0 C1 3.63 1 7.26 1 11 C1.99 11 2.98 11 4 11 C4 40.7 4 70.4 4 101 C6.97 101 9.94 101 13 101 C13 101.66 13 102.32 13 103 C10.03 103 7.06 103 4 103 C4 104.32 4 105.64 4 107 C6.64 107 9.28 107 12 107 C12 107.66 12 108.32 12 109 C9.69 109 7.38 109 5 109 C4.67 110.65 4.34 112.3 4 114 C6.64 114 9.28 114 12 114 C12 114.33 12 114.66 12 115 C9.36 115 6.72 115 4 115 C4 116.32 4 117.64 4 119 C4.66 118.67 5.32 118.34 6 118 C8.6723621 117.86584528 11.32250488 117.95681459 14 118 C14 118.66 14 119.32 14 120 C10.7 120 7.4 120 4 120 C4 120.66 4 121.32 4 122 C-13.19948487 122.86587066 -30.39022022 123.2855861 -47.60884476 123.53242874 C-49.71360049 123.56287759 -51.81833321 123.59463234 -53.92306519 123.62667847 C-81.28243504 124.04011648 -108.63762272 124.11604062 -136 124 C-136 123.67 -136 123.34 -136 123 C-127.09 122.67 -118.18 122.34 -109 122 C-108.67 121.34 -108.34 120.68 -108 120 C-117.24 120 -126.48 120 -136 120 C-136 119.34 -136 118.68 -136 118 C-126.43 118 -116.86 118 -107 118 C-107 116.68 -107 115.36 -107 114 C-115.91 114 -124.82 114 -134 114 C-134 113.67 -134 113.34 -134 113 C-125.09 113 -116.18 113 -107 113 C-107 112.01 -107 111.02 -107 110 C-116.24 110 -125.48 110 -135 110 C-135 109.67 -135 109.34 -135 109 C-125.76 109 -116.52 109 -107 109 C-107 90.52 -107 72.04 -107 53 C-106.67 53 -106.34 53 -106 53 C-106 71.48 -106 89.96 -106 109 C-103.03 109 -100.06 109 -97 109 C-97 82.93 -97 56.86 -97 30 C-69.28 30 -41.56 30 -13 30 C-13 35.61 -13 41.22 -13 47 C-11.02 47 -9.04 47 -7 47 C-7 47.66 -7 48.32 -7 49 C-8.98 49 -10.96 49 -13 49 C-13 50.32 -13 51.64 -13 53 C-12.34 53.33 -11.68 53.66 -11 54 C-11.66 54 -12.32 54 -13 54 C-13 69.51 -13 85.02 -13 101 C-8.05 101 -3.1 101 2 101 C1.67 78.23 1.34 55.46 1 32 C0.67 32 0.34 32 0 32 C0 25.4 0 18.8 0 12 C-34.65 12 -69.3 12 -105 12 C-105 12.66 -105 13.32 -105 14 C-100.71 14 -96.42 14 -92 14 C-92 14.33 -92 14.66 -92 15 C-96.62 15 -101.24 15 -106 15 C-106 16.65 -106 18.3 -106 20 C-101.05 20 -96.1 20 -91 20 C-91 20.33 -91 20.66 -91 21 C-95.95 21 -100.9 21 -106 21 C-106 22.65 -106 24.3 -106 26 C-100.06 26 -94.12 26 -88 26 C-88 26.33 -88 26.66 -88 27 C-93.94 27 -99.88 27 -106 27 C-106 34.92 -106 42.84 -106 51 C-106.33 51 -106.66 51 -107 51 C-107 43.08 -107 35.16 -107 27 C-115.58 27 -124.16 27 -133 27 C-133 26.67 -133 26.34 -133 26 C-124.42 26 -115.84 26 -107 26 C-107 24.35 -107 22.7 -107 21 C-114.26 21 -121.52 21 -129 21 C-129 20.67 -129 20.34 -129 20 C-121.74 20 -114.48 20 -107 20 C-107 18.35 -107 16.7 -107 15 C-115.58 15 -124.16 15 -133 15 C-133 14.67 -133 14.34 -133 14 C-124.42 14 -115.84 14 -107 14 C-107 12.68 -107 11.36 -107 10 C-114.92 10 -122.84 10 -131 10 C-131.33 9.34 -131.66 8.68 -132 8 C-118.8 8 -105.6 8 -92 8 C-92 8.66 -92 9.32 -92 10 C-49.43 10.495 -49.43 10.495 -6 11 C-6 8.03 -6 5.06 -6 2 C-5.34 2 -4.68 2 -4 2 C-4 4.97 -4 7.94 -4 11 C-3.01 10.67 -2.02 10.34 -1 10 C-1.01160156 9.36191406 -1.02320313 8.72382812 -1.03515625 8.06640625 C-1.04417969 7.24011719 -1.05320313 6.41382812 -1.0625 5.5625 C-1.07410156 4.73878906 -1.08570313 3.91507813 -1.09765625 3.06640625 C-1 1 -1 1 0 0 Z " fill="#8C8D8D" transform="translate(182,59)"/>
<path d="M0 0 C0.33 0 0.66 0 1 0 C1.12596692 6.55027986 1.12596692 6.55027986 0.51098633 8.74584961 C-0.24477271 12.07978329 -0.20298086 15.41397576 -0.23828125 18.81640625 C-0.24789383 19.58163605 -0.25750641 20.34686584 -0.26741028 21.13528442 C-0.29213773 23.61106796 -0.30467067 26.08660732 -0.3125 28.5625 C-0.31578308 29.39858795 -0.31906616 30.2346759 -0.32244873 31.09609985 C-0.33806109 43.32602459 -0.09439713 55.32947388 4 67 C4.66 67.66 5.32 68.32 6 69 C6.4921875 71.0234375 6.4921875 71.0234375 6.875 73.375 C7.69958429 77.51111478 8.9073617 79.10688675 12 82 C12.12761719 82.89460938 12.25523438 83.78921875 12.38671875 84.7109375 C13.11790518 88.63233223 14.60806357 91.08367848 16.75 94.4375 C17.10835937 95.0044458 17.46671875 95.5713916 17.8359375 96.15551758 C19.79886123 99.23538375 21.84485111 102.23965266 24 105.1875 C26 108 26 108 26 110 C26.8971875 110.0928125 26.8971875 110.0928125 27.8125 110.1875 C30.90423567 111.33585896 31.3060956 113.15666048 33 116 C50.85923663 137.49078057 80.99639278 151.09834973 108.38647461 153.82128906 C123.85116069 154.87875288 140.01788976 155.37125099 155 151 C156.29419092 150.65594925 157.5884655 150.31221309 158.8828125 149.96875 C185.73362807 142.5062228 209.61661215 125.45934626 226 103 C226 109.9922131 217.53866014 116.63658889 212.9375 121.4375 C188.60363523 145.16804581 155.43937694 157.41938956 121.67260742 157.22705078 C120.29139718 157.22648493 118.91018634 157.22680661 117.52897644 157.22793579 C113.82319852 157.22850353 110.11755328 157.21684442 106.41180587 157.20278788 C102.52277938 157.19018263 98.63374897 157.18910237 94.7447052 157.18673706 C87.39983757 157.18055081 80.05503034 157.16417913 72.71018916 157.14403808 C64.34004338 157.12158958 55.96989453 157.11066327 47.59972608 157.10064721 C30.39978261 157.07980997 13.19989771 157.04469026 -4 157 C-4.0469282 140.21333272 -4.08209008 123.42668705 -4.10362434 106.63996983 C-4.11389327 98.84386044 -4.12786866 91.04779204 -4.15087891 83.25170898 C-4.1709482 76.44874619 -4.1837482 69.64581312 -4.18817699 62.84282154 C-4.1907617 59.24786916 -4.19674285 55.65300173 -4.21146011 52.05807686 C-4.34901375 17.08541117 -4.34901375 17.08541117 0 0 Z " fill="#F1F1F1" transform="translate(4,99)"/>
<path d="M0 0 C34.65 0 69.3 0 105 0 C107.18743358 4.37486716 107.27069932 7.5194108 107.22705078 12.25683594 C107.22734283 13.08647354 107.22763489 13.91611115 107.22793579 14.77088928 C107.2265442 17.50882482 107.21099104 20.24648709 107.1953125 22.984375 C107.19158176 24.88437756 107.18873508 26.78438204 107.18673706 28.68438721 C107.17910539 33.68212202 107.15946085 38.67974036 107.1373291 43.6774292 C107.11686067 48.77842636 107.10773321 53.87944235 107.09765625 58.98046875 C107.07621457 68.98703031 107.04208419 78.99350546 107 89 C102.05 89 97.1 89 92 89 C92 71.84 92 54.68 92 37 C93.98 37 95.96 37 98 37 C98 36.34 98 35.68 98 35 C96.02 35 94.04 35 92 35 C92 29.39 92 23.78 92 18 C64.28 18 36.56 18 8 18 C8 44.07 8 70.14 8 97 C-4.54 97 -17.08 97 -30 97 C-30 96.67 -30 96.34 -30 96 C-21.09 96 -12.18 96 -3 96 C-3 69.6 -3 43.2 -3 16 C-11.25 16 -19.5 16 -28 16 C-28 15.67 -28 15.34 -28 15 C-19.09 15 -10.18 15 -1 15 C-1 11.04 -1 7.08 -1 3 C-0.67 2.01 -0.34 1.02 0 0 Z " fill="#FAFAFA" transform="translate(77,71)"/>
<path d="M0 0 C0.33 0 0.66 0 1 0 C1 36.63 1 73.26 1 111 C-37.28 111 -75.56 111 -115 111 C-115 110.67 -115 110.34 -115 110 C-113.90945312 109.85304688 -112.81890625 109.70609375 -111.6953125 109.5546875 C-78.09440899 104.69704288 -47.07993223 88.11054019 -26.17749023 60.94628906 C-13.98828455 44.53317147 -7.00451686 27.231391 -2.61914062 7.34570312 C-1.94576835 4.79453561 -1.02393092 2.42941083 0 0 Z " fill="#FDFDFD" transform="translate(255,145)"/>
<path d="M0 0 C0.33 0 0.66 0 1 0 C1 3.63 1 7.26 1 11 C1.99 11 2.98 11 4 11 C4 40.7 4 70.4 4 101 C6.97 101 9.94 101 13 101 C13 101.66 13 102.32 13 103 C10.03 103 7.06 103 4 103 C4 104.32 4 105.64 4 107 C6.64 107 9.28 107 12 107 C12 107.66 12 108.32 12 109 C9.69 109 7.38 109 5 109 C4.67 110.65 4.34 112.3 4 114 C6.64 114 9.28 114 12 114 C12 114.33 12 114.66 12 115 C9.36 115 6.72 115 4 115 C4 116.32 4 117.64 4 119 C4.66 118.67 5.32 118.34 6 118 C8.6723621 117.86584528 11.32250488 117.95681459 14 118 C14 118.66 14 119.32 14 120 C10.7 120 7.4 120 4 120 C4 120.66 4 121.32 4 122 C-13.19948487 122.86587066 -30.39022022 123.2855861 -47.60884476 123.53242874 C-49.71360049 123.56287759 -51.81833321 123.59463234 -53.92306519 123.62667847 C-81.28243504 124.04011648 -108.63762272 124.11604062 -136 124 C-136 123.67 -136 123.34 -136 123 C-127.09 122.67 -118.18 122.34 -109 122 C-108.67 121.34 -108.34 120.68 -108 120 C-117.24 120 -126.48 120 -136 120 C-135.505 119.01 -135.505 119.01 -135 118 C-121.14 118.495 -121.14 118.495 -107 119 C-107 119.99 -107 120.98 -107 122 C-106.01 121.01 -105.02 120.02 -104 119 C-104.66 118.67 -105.32 118.34 -106 118 C-106 116.68 -106 115.36 -106 114 C-104.9275 114.020625 -103.855 114.04125 -102.75 114.0625 C-99.85209576 114.0142016 -97.71387859 113.86844115 -95 113 C-95 112.01 -95 111.02 -95 110 C-93.02 109.505 -93.02 109.505 -91 109 C-91 108.01 -91 107.02 -91 106 C-89.83088684 104.33676147 -89.83088684 104.33676147 -88 103 C-85.59159851 102.61904907 -85.59159851 102.61904907 -82.70581055 102.61181641 C-81.62426193 102.60235992 -80.54271332 102.59290344 -79.4283905 102.5831604 C-78.25963882 102.58923309 -77.09088715 102.59530579 -75.88671875 102.6015625 C-74.68441116 102.59869232 -73.48210358 102.59582214 -72.24336243 102.59286499 C-69.69714895 102.59082169 -67.15091986 102.59637003 -64.60473633 102.60888672 C-60.71334497 102.62489369 -56.82299896 102.60906764 -52.93164062 102.58984375 C-50.45833104 102.59182696 -47.98502211 102.59567223 -45.51171875 102.6015625 C-44.34903976 102.59548981 -43.18636078 102.58941711 -41.9884491 102.5831604 C-36.18508449 102.6334621 -31.89744176 102.74294517 -27 106 C-28.32 106.33 -29.64 106.66 -31 107 C-31 107.66 -31 108.32 -31 109 C-30.37351562 108.98839844 -29.74703125 108.97679687 -29.1015625 108.96484375 C-28.28429687 108.95582031 -27.46703125 108.94679688 -26.625 108.9375 C-25.81289062 108.92589844 -25.00078125 108.91429687 -24.1640625 108.90234375 C-22 109 -22 109 -20 110 C-20 109.34 -20 108.68 -20 108 C-18.02 108 -16.04 108 -14 108 C-14 109.32 -14 110.64 -14 112 C-14.66 112 -15.32 112 -16 112 C-16 112.66 -16 113.32 -16 114 C-15.01 114 -14.02 114 -13 114 C-13 109.71 -13 105.42 -13 101 C-8.05 101 -3.1 101 2 101 C1.67 78.23 1.34 55.46 1 32 C0.67 32 0.34 32 0 32 C0 25.4 0 18.8 0 12 C-34.65 12 -69.3 12 -105 12 C-105 12.66 -105 13.32 -105 14 C-100.71 14 -96.42 14 -92 14 C-92 14.33 -92 14.66 -92 15 C-96.62 15 -101.24 15 -106 15 C-106 16.65 -106 18.3 -106 20 C-101.05 20 -96.1 20 -91 20 C-91 20.33 -91 20.66 -91 21 C-95.95 21 -100.9 21 -106 21 C-106 22.65 -106 24.3 -106 26 C-100.06 26 -94.12 26 -88 26 C-88 26.33 -88 26.66 -88 27 C-93.94 27 -99.88 27 -106 27 C-106 34.92 -106 42.84 -106 51 C-106.33 51 -106.66 51 -107 51 C-107 43.08 -107 35.16 -107 27 C-115.58 27 -124.16 27 -133 27 C-133 26.67 -133 26.34 -133 26 C-124.42 26 -115.84 26 -107 26 C-107 24.35 -107 22.7 -107 21 C-114.26 21 -121.52 21 -129 21 C-129 20.67 -129 20.34 -129 20 C-121.74 20 -114.48 20 -107 20 C-107 18.35 -107 16.7 -107 15 C-115.58 15 -124.16 15 -133 15 C-133 14.67 -133 14.34 -133 14 C-124.42 14 -115.84 14 -107 14 C-107 12.68 -107 11.36 -107 10 C-114.92 10 -122.84 10 -131 10 C-131.33 9.34 -131.66 8.68 -132 8 C-118.8 8 -105.6 8 -92 8 C-92 8.66 -92 9.32 -92 10 C-49.43 10.495 -49.43 10.495 -6 11 C-6 8.03 -6 5.06 -6 2 C-5.34 2 -4.68 2 -4 2 C-4 4.97 -4 7.94 -4 11 C-3.01 10.67 -2.02 10.34 -1 10 C-1.01160156 9.36191406 -1.02320313 8.72382812 -1.03515625 8.06640625 C-1.04417969 7.24011719 -1.05320313 6.41382812 -1.0625 5.5625 C-1.07410156 4.73878906 -1.08570313 3.91507813 -1.09765625 3.06640625 C-1 1 -1 1 0 0 Z " fill="#777777" transform="translate(182,59)"/>
<path d="M0 0 C26.73 0 53.46 0 81 0 C81 3.96 81 7.92 81 12 C73.08 12.33 65.16 12.66 57 13 C64.92 13 72.84 13 81 13 C81 15.97 81 18.94 81 22 C74.4 22 67.8 22 61 22 C61 21.01 61 20.02 61 19 C43.51 19 26.02 19 8 19 C7.94819726 35.84305353 7.94819726 35.84305353 7.97241211 52.68603516 C7.95180204 54.80373944 7.92861909 56.92142093 7.90234375 59.0390625 C7.92367371 60.67717896 7.92367371 60.67717896 7.94543457 62.34838867 C7.92597778 63.40340576 7.906521 64.45842285 7.88647461 65.54541016 C7.884254 66.4558609 7.88203339 67.36631165 7.87974548 68.30435181 C7 71 7 71 0 77 C0 51.59 0 26.18 0 0 Z " fill="#FBFBFB" transform="translate(87,90)"/>
<path d="M0 0 C6.6 0 13.2 0 20 0 C20 13.86 20 27.72 20 42 C18.02 42 16.04 42 14 42 C14 42.66 14 43.32 14 44 C15.98 44 17.96 44 20 44 C20 45.32 20 46.64 20 48 C18.35667644 48.13822348 16.70972907 48.23341493 15.0625 48.3125 C14.14597656 48.37050781 13.22945312 48.42851562 12.28515625 48.48828125 C9 48 9 48 0 43 C0 28.81 0 14.62 0 0 Z " fill="#FDFDFD" transform="translate(148,118)"/>
<path d="M0 0 C1.62695173 0.00502997 3.25390499 0.0095902 4.88085938 0.01367188 C8.81644475 0.02454755 12.75195493 0.04172774 16.6875 0.0625 C16.6875 2.7025 16.6875 5.3425 16.6875 8.0625 C15.470625 8.10375 14.25375 8.145 13 8.1875 C10.85509166 8.15422002 10.85509166 8.15422002 8.6875 9.0625 C8.089375 10.073125 7.49125 11.08375 6.875 12.125 C5.60864258 13.76220703 5.60864258 13.76220703 3.6875 15.0625 C-1.44358506 15.69895603 -6.48931294 15.30217818 -11.625 14.9375 C-13.04737225 14.85913595 -14.46990244 14.78358477 -15.89257812 14.7109375 C-19.36830832 14.52731987 -22.84034315 14.30528157 -26.3125 14.0625 C-26.27584229 14.9095752 -26.23918457 15.75665039 -26.20141602 16.62939453 C-26.08160728 19.79381836 -25.99412512 22.95708162 -25.92797852 26.12304688 C-25.89292521 27.48899521 -25.84526368 28.85468366 -25.78442383 30.21972656 C-25.6988718 32.18957988 -25.6634059 34.16140412 -25.62890625 36.1328125 C-25.59224854 37.31633301 -25.55559082 38.49985352 -25.51782227 39.71923828 C-26.3125 43.0625 -26.3125 43.0625 -33.3125 49.0625 C-33.3125 33.8825 -33.3125 18.7025 -33.3125 3.0625 C-31.97916667 4.39583333 -30.64583333 5.72916667 -29.3125 7.0625 C-29.9725 5.0825 -30.6325 3.1025 -31.3125 1.0625 C-20.85300232 0.03291677 -10.49830679 -0.05712045 0 0 Z " fill="#FCFCFC" transform="translate(129.3125,108.9375)"/>
<path d="M0 0 C0 13.53 0 27.06 0 41 C-2.39582346 42.19791173 -3.86777538 42.1206744 -6.54150391 42.11352539 C-7.48232819 42.11344986 -8.42315247 42.11337433 -9.39248657 42.11329651 C-10.41023163 42.10813522 -11.42797668 42.10297394 -12.4765625 42.09765625 C-13.51694672 42.0962413 -14.55733093 42.09482635 -15.62924194 42.09336853 C-18.96119021 42.08775866 -22.29307195 42.07520447 -25.625 42.0625 C-27.88020736 42.05748627 -30.13541578 42.05292314 -32.390625 42.04882812 C-37.92710614 42.03778603 -43.46354832 42.02103827 -49 42 C-44.27999226 35.29611761 -44.27999226 35.29611761 -39.56494141 34.20532227 C-38.33952637 34.24197998 -37.11411133 34.2786377 -35.8515625 34.31640625 C-35.19417084 34.32631088 -34.53677917 34.33621552 -33.85946655 34.34642029 C-31.77894801 34.38531991 -29.70389571 34.47304624 -27.625 34.5625 C-26.20710801 34.59764765 -24.78913247 34.62958066 -23.37109375 34.65820312 C-19.91231461 34.73498745 -16.45669155 34.85557441 -13 35 C-13.33 34.67 -13.66 34.34 -14 34 C-14.31017971 29.75759722 -14.27849941 25.50233997 -14.3125 21.25 C-14.34150391 20.05632812 -14.37050781 18.86265625 -14.40039062 17.6328125 C-14.40876953 16.48039062 -14.41714844 15.32796875 -14.42578125 14.140625 C-14.44036377 13.08391602 -14.45494629 12.02720703 -14.4699707 10.93847656 C-13.76224894 6.5134692 -11.256744 4.21485253 -8.125 1.1875 C-6 0 -6 0 0 0 Z " fill="#FCFCFC" transform="translate(146,118)"/>
<path d="M0 0 C8.58 0 17.16 0 26 0 C26 8.58 26 17.16 26 26 C17.42 26 8.84 26 0 26 C0 17.42 0 8.84 0 0 Z " fill="#F1F6F8" transform="translate(104,125)"/>
<path d="M0 0 C1.08154861 -0.00945648 2.16309723 -0.01891296 3.27742004 -0.02865601 C4.44617172 -0.02258331 5.6149234 -0.01651062 6.8190918 -0.01025391 C8.62255318 -0.01455917 8.62255318 -0.01455917 10.46244812 -0.01895142 C13.0086616 -0.02099472 15.55489068 -0.01544638 18.10107422 -0.00292969 C21.99246558 0.01307728 25.88281159 -0.00274877 29.77416992 -0.02197266 C32.2474795 -0.01998945 34.72078843 -0.01614418 37.1940918 -0.01025391 C38.35677078 -0.0163266 39.51944977 -0.02239929 40.71736145 -0.02865601 C46.52072606 0.0216457 50.80836878 0.13112876 55.70581055 3.38818359 C54.38581055 3.71818359 53.06581055 4.04818359 51.70581055 4.38818359 C51.70581055 5.04818359 51.70581055 5.70818359 51.70581055 6.38818359 C52.62813477 6.33597656 52.62813477 6.33597656 53.5690918 6.28271484 C54.37733398 6.25564453 55.18557617 6.22857422 56.01831055 6.20068359 C57.21907227 6.14847656 57.21907227 6.14847656 58.4440918 6.09521484 C61.21816799 6.45455114 61.86394544 7.37950806 63.70581055 9.38818359 C38.31874304 10.24015047 13.0881733 10.45475072 -12.29418945 9.38818359 C-12.29418945 8.72818359 -12.29418945 8.06818359 -12.29418945 7.38818359 C-10.97418945 7.05818359 -9.65418945 6.72818359 -8.29418945 6.38818359 C-8.29418945 5.39818359 -8.29418945 4.40818359 -8.29418945 3.38818359 C-5.97074401 0.08273455 -3.89308947 0.00975727 0 0 Z " fill="#FBFBFB" transform="translate(99.294189453125,161.61181640625)"/>
<path d="M0 0 C0.495 0.99 0.495 0.99 1 2 C1.86278564 1.98428955 2.72557129 1.9685791 3.61450195 1.95239258 C6.81809267 1.90124045 10.02147515 1.8636384 13.2253418 1.83520508 C14.61147919 1.82012603 15.99756894 1.7996595 17.38354492 1.77368164 C19.37658146 1.73726284 21.36996723 1.72186982 23.36328125 1.70703125 C24.56251221 1.6913208 25.76174316 1.67561035 26.99731445 1.65942383 C30 2 30 2 31.91479492 3.51831055 C32.2729126 4.00726807 32.63103027 4.49622559 33 5 C26.24105021 6.09670459 19.8233785 5.93398556 13 5.5625 C11.93910156 5.51029297 10.87820312 5.45808594 9.78515625 5.40429688 C7.18972725 5.27569454 4.59479182 5.14078533 2 5 C2 5.66 2 6.32 2 7 C14.21 7 26.42 7 39 7 C39 7.33 39 7.66 39 8 C4.68 8 -29.64 8 -65 8 C-64.34 7.34 -63.68 6.68 -63 6 C-63.66 5.67 -64.32 5.34 -65 5 C-65 3.68 -65 2.36 -65 1 C-63.24042969 1.01740234 -63.24042969 1.01740234 -61.4453125 1.03515625 C-40.95645238 1.16352503 -20.47983306 0.53860371 0 0 Z " fill="#F7F7F7" transform="translate(141,172)"/>
<path d="M0 0 C0.33 0 0.66 0 1 0 C1 3.63 1 7.26 1 11 C1.99 11 2.98 11 4 11 C4 40.7 4 70.4 4 101 C3.67 101 3.34 101 3 101 C3 71.63 3 42.26 3 12 C2.34 12 1.68 12 1 12 C1 18.6 1 25.2 1 32 C0.67 32 0.34 32 0 32 C0 25.4 0 18.8 0 12 C-34.65 12 -69.3 12 -105 12 C-105 12.66 -105 13.32 -105 14 C-100.71 14 -96.42 14 -92 14 C-92 14.33 -92 14.66 -92 15 C-96.62 15 -101.24 15 -106 15 C-106 16.65 -106 18.3 -106 20 C-101.05 20 -96.1 20 -91 20 C-91 20.33 -91 20.66 -91 21 C-95.95 21 -100.9 21 -106 21 C-106 22.65 -106 24.3 -106 26 C-100.06 26 -94.12 26 -88 26 C-88 26.33 -88 26.66 -88 27 C-93.94 27 -99.88 27 -106 27 C-106 34.92 -106 42.84 -106 51 C-106.33 51 -106.66 51 -107 51 C-107 43.08 -107 35.16 -107 27 C-115.58 27 -124.16 27 -133 27 C-133 26.67 -133 26.34 -133 26 C-124.42 26 -115.84 26 -107 26 C-107 24.35 -107 22.7 -107 21 C-114.26 21 -121.52 21 -129 21 C-129 20.67 -129 20.34 -129 20 C-121.74 20 -114.48 20 -107 20 C-107 18.35 -107 16.7 -107 15 C-115.58 15 -124.16 15 -133 15 C-133 14.67 -133 14.34 -133 14 C-124.42 14 -115.84 14 -107 14 C-107 12.68 -107 11.36 -107 10 C-114.92 10 -122.84 10 -131 10 C-131.33 9.34 -131.66 8.68 -132 8 C-118.8 8 -105.6 8 -92 8 C-92 8.66 -92 9.32 -92 10 C-49.43 10.495 -49.43 10.495 -6 11 C-6 8.03 -6 5.06 -6 2 C-5.34 2 -4.68 2 -4 2 C-4 4.97 -4 7.94 -4 11 C-3.01 10.67 -2.02 10.34 -1 10 C-1.01160156 9.36191406 -1.02320313 8.72382812 -1.03515625 8.06640625 C-1.04417969 7.24011719 -1.05320313 6.41382812 -1.0625 5.5625 C-1.07410156 4.73878906 -1.08570313 3.91507813 -1.09765625 3.06640625 C-1 1 -1 1 0 0 Z " fill="#676868" transform="translate(182,59)"/>
<path d="M0 0 C0 19.47 0 38.94 0 59 C-2.97 59 -5.94 59 -9 59 C-9.02531484 51.64934015 -9.04285202 44.2986915 -9.05493164 36.94799805 C-9.05996641 34.44636617 -9.06679461 31.94473724 -9.07543945 29.44311523 C-9.08754238 25.85139234 -9.09323682 22.25970828 -9.09765625 18.66796875 C-9.10539818 16.98503975 -9.10539818 16.98503975 -9.11329651 15.26811218 C-9.11337204 14.22725967 -9.11344757 13.18640717 -9.11352539 12.11401367 C-9.115746 11.19690109 -9.11796661 10.27978851 -9.12025452 9.33488464 C-9 7 -9 7 -8 4 C-7.34 4 -6.68 4 -6 4 C-5.67 3.01 -5.34 2.02 -5 1 C-3.28960011 0.41205004 -1.81522119 0 0 0 Z " fill="#FCFCFB" transform="translate(85,109)"/>
<path d="M0 0 C27.39 0 54.78 0 83 0 C83 5.61 83 11.22 83 17 C84.98 17 86.96 17 89 17 C89 17.66 89 18.32 89 19 C87.02 19 85.04 19 83 19 C83 20.32 83 21.64 83 23 C83.66 23.33 84.32 23.66 85 24 C84.34 24 83.68 24 83 24 C83 43.8 83 63.6 83 84 C82.01 84 81.02 84 80 84 C80 83.34 80 82.68 80 82 C80.66 82 81.32 82 82 82 C82 80.68 82 79.36 82 78 C80.02 78 78.04 78 76 78 C76 78.66 76 79.32 76 80 C70.555 79.505 70.555 79.505 65 79 C65 78.34 65 77.68 65 77 C70.76926889 75.59666432 76.18143105 76.32703384 82 77 C82 75.68 82 74.36 82 73 C80.02 73 78.04 73 76 73 C76 72.34 76 71.68 76 71 C77.98 71 79.96 71 82 71 C82 57.14 82 43.28 82 29 C77.4625 29.12375 72.925 29.2475 68.25 29.375 C66.82461914 29.40899902 65.39923828 29.44299805 63.93066406 29.47802734 C62.80370117 29.5136377 61.67673828 29.54924805 60.515625 29.5859375 C58.78747559 29.63306885 58.78747559 29.63306885 57.02441406 29.68115234 C54.15165578 29.98401175 52.43820389 30.5088238 50 32 C50.33 31.34 50.66 30.68 51 30 C49.02 29.67 47.04 29.34 45 29 C45 28.67 45 28.34 45 28 C49.95 28 54.9 28 60 28 C60 26.68 60 25.36 60 24 C55.71 24 51.42 24 47 24 C47 23.67 47 23.34 47 23 C51.29 23 55.58 23 60 23 C60 22.01 60 21.02 60 20 C60.66 20 61.32 20 62 20 C62 20.99 62 21.98 62 23 C68.6 23 75.2 23 82 23 C82 20.03 82 17.06 82 14 C81.34 14.33 80.68 14.66 80 15 C75.57418131 15.21141314 71.14465755 15.18579708 66.71435547 15.18530273 C64.5085935 15.18749147 62.30332984 15.2056586 60.09765625 15.22460938 C58.70052255 15.22754293 57.30338647 15.22952798 55.90625 15.23046875 C54.63072266 15.23457764 53.35519531 15.23868652 52.04101562 15.24291992 C49 15 49 15 47 13 C58.55 13 70.1 13 82 13 C82 9.04 82 5.08 82 1 C55.27 1 28.54 1 1 1 C0.67 2.32 0.34 3.64 0 5 C0 3.35 0 1.7 0 0 Z " fill="#6E6E6E" transform="translate(86,89)"/>
<path d="M0 0 C0.495 0.99 0.495 0.99 1 2 C-2.3 2 -5.6 2 -9 2 C-9 9.26 -9 16.52 -9 24 C-10.65 24.66 -12.3 25.32 -14 26 C-14.33 26.66 -14.66 27.32 -15 28 C-15.66 28 -16.32 28 -17 28 C-17.98964237 30.96892711 -18.15273727 33.01149908 -18.20532227 36.11401367 C-18.22526749 37.15486618 -18.24521271 38.19571869 -18.26576233 39.26811218 C-18.29083107 40.95104118 -18.29083107 40.95104118 -18.31640625 42.66796875 C-18.33718735 43.81791824 -18.35796844 44.96786774 -18.37937927 46.15266418 C-18.44483342 49.83088125 -18.50374074 53.50917048 -18.5625 57.1875 C-18.60568913 59.67904396 -18.64930355 62.17058059 -18.69335938 64.66210938 C-18.8013119 70.77466665 -18.90041666 76.88727767 -19 83 C-28.24 83 -37.48 83 -47 83 C-47 82.67 -47 82.34 -47 82 C-38.09 82 -29.18 82 -20 82 C-20 55.6 -20 29.2 -20 2 C-28.25 2 -36.5 2 -45 2 C-45 1.67 -45 1.34 -45 1 C-43.91452881 1.00785522 -43.91452881 1.00785522 -42.80712891 1.01586914 C-28.4993666 1.10544857 -14.27373039 1.04487438 0 0 Z " fill="#E6E6E5" transform="translate(94,85)"/>
<path d="M0 0 C0.66 0 1.32 0 2 0 C2 29.37 2 58.74 2 89 C5.3 89 8.6 89 12 89 C12 89.66 12 90.32 12 91 C9.03 91 6.06 91 3 91 C3 92.32 3 93.64 3 95 C5.64 95 8.28 95 11 95 C11 95.66 11 96.32 11 97 C8.69 97 6.38 97 4 97 C3.34 98.65 2.68 100.3 2 102 C-3.28 102 -8.56 102 -14 102 C-14 97.71 -14 93.42 -14 89 C-9.05 89 -4.1 89 1 89 C0.67 59.63 0.34 30.26 0 0 Z " fill="#ABACAD" transform="translate(183,71)"/>
<path d="M0 0 C0.99 0.66 1.98 1.32 3 2 C2.01 2.33 1.02 2.66 0 3 C0.33 12.57 0.66 22.14 1 32 C1.99 31.67 2.98 31.34 4 31 C4.20388352 35.37430964 4.32783606 39.74739465 4.4375 44.125 C4.49615234 45.3625 4.55480469 46.6 4.61523438 47.875 C4.63779297 49.07382813 4.66035156 50.27265625 4.68359375 51.5078125 C4.72025146 52.60754395 4.75690918 53.70727539 4.79467773 54.84033203 C4 58 4 58 -3 64 C-3 43.54 -3 23.08 -3 2 C-2.34 2 -1.68 2 -1 2 C-0.67 1.34 -0.34 0.68 0 0 Z " fill="#F5FAFC" transform="translate(90,103)"/>
<path d="M0 0 C7.77279445 7.77279445 7.30914103 15.38835991 7.5 25.875 C7.58121094 27.77572266 7.58121094 27.77572266 7.6640625 29.71484375 C7.68210937 30.94074219 7.70015625 32.16664063 7.71875 33.4296875 C7.74904297 34.54585449 7.77933594 35.66202148 7.81054688 36.81201172 C7 40 7 40 0 46 C0 30.82 0 15.64 0 0 Z " fill="#FAFAFB" transform="translate(96,112)"/>
<path d="M0 0 C0.33 0 0.66 0 1 0 C1 19.8 1 39.6 1 60 C4.63 59.67 8.26 59.34 12 59 C15.6875 59.4375 15.6875 59.4375 18 60 C18 60.33 18 60.66 18 61 C16.10507254 61.19644384 14.20899097 61.38177288 12.3125 61.5625 C10.72888672 61.71912109 10.72888672 61.71912109 9.11328125 61.87890625 C6.18573914 61.99277552 3.82868856 61.70848415 1 61 C1 62.32 1 63.64 1 65 C7.93 65 14.86 65 22 65 C22 65.33 22 65.66 22 66 C15.73 66.33 9.46 66.66 3 67 C34.68 67.495 34.68 67.495 67 68 C67 68.33 67 68.66 67 69 C44.89 69 22.78 69 0 69 C0 68.01 0 67.02 0 66 C-9.24 66 -18.48 66 -28 66 C-28 65.67 -28 65.34 -28 65 C-18.76 65 -9.52 65 0 65 C0 63.68 0 62.36 0 61 C-8.91 61 -17.82 61 -27 61 C-27 60.67 -27 60.34 -27 60 C-18.09 60 -9.18 60 0 60 C0 59.01 0 58.02 0 57 C-9.24 57 -18.48 57 -28 57 C-28 56.67 -28 56.34 -28 56 C-18.76 56 -9.52 56 0 56 C0 37.52 0 19.04 0 0 Z " fill="#717070" transform="translate(75,112)"/>
<path d="M0 0 C0.50756836 0.16298584 1.01513672 0.32597168 1.53808594 0.49389648 C4.85383538 1.17552566 8.00584608 1.11108791 11.390625 1.09765625 C12.09523865 1.0962413 12.79985229 1.09482635 13.52581787 1.09336853 C15.76725584 1.08778933 18.00859243 1.07524073 20.25 1.0625 C21.77343605 1.05748231 23.29687368 1.05291987 24.8203125 1.04882812 C28.54690772 1.03782674 32.27344396 1.02057646 36 1 C36 3.97 36 6.94 36 10 C29.4 10 22.8 10 16 10 C16 9.01 16 8.02 16 7 C10.72 6.67 5.44 6.34 0 6 C0 5.34 0 4.68 0 4 C0.66 4 1.32 4 2 4 C2 3.34 2 2.68 2 2 C1.34 2 0.68 2 0 2 C0 1.34 0 0.68 0 0 Z " fill="#C0C0C0" transform="translate(132,102)"/>
<path d="M0 0 C0.33 0 0.66 0 1 0 C1.97335724 4.09875863 2.15374279 7.96959048 2.20532227 12.17700195 C2.21522186 12.87998917 2.22512146 13.58297638 2.23532104 14.30726624 C2.2667633 16.61757099 2.29162468 18.92789626 2.31640625 21.23828125 C2.33699072 22.84539812 2.35798758 24.45250976 2.37937927 26.05961609 C2.43444579 30.27963002 2.48392276 34.49969156 2.53222656 38.7197876 C2.58255451 43.03003146 2.6381815 47.3402066 2.69335938 51.65039062 C2.80075221 60.10020223 2.90223871 68.5500715 3 77 C4.32 75.68 5.64 74.36 7 73 C7.66 73.33 8.32 73.66 9 74 C8.01 75.32 7.02 76.64 6 78 C7.98 78.33 9.96 78.66 12 79 C12 79.33 12 79.66 12 80 C8.7 80 5.4 80 2 80 C1.67 80.99 1.34 81.98 1 83 C-2.3 83 -5.6 83 -9 83 C-9 81.68 -9 80.36 -9 79 C-6.03 79 -3.06 79 0 79 C0 52.93 0 26.86 0 0 Z " fill="#989797" transform="translate(85,89)"/>
<path d="M0 0 C2.97 0 5.94 0 9 0 C7.68 0.33 6.36 0.66 5 1 C5 1.66 5 2.32 5 3 C4.01 3 3.02 3 2 3 C4.31 7.95 6.62 12.9 9 18 C8.67 18.33 8.34 18.66 8 19 C7.84213692 20.85174706 7.74892644 22.7090911 7.68359375 24.56640625 C7.64169922 25.69111328 7.59980469 26.81582031 7.55664062 27.97460938 C7.51732422 29.15861328 7.47800781 30.34261719 7.4375 31.5625 C7.37272461 33.34430664 7.37272461 33.34430664 7.30664062 35.16210938 C7.20016454 38.10794784 7.09815159 41.0538743 7 44 C6.01 44.495 6.01 44.495 5 45 C4.67 52.26 4.34 59.52 4 67 C3.67 67 3.34 67 3 67 C3 50.17 3 33.34 3 16 C3.66 15.67 4.32 15.34 5 15 C4.34 15 3.68 15 3 15 C2.01 15 1.02 15 0 15 C0 10.05 0 5.1 0 0 Z " fill="#DEE5E9" transform="translate(87,90)"/>
<path d="M0 0 C3.63 0 7.26 0 11 0 C11.33 0.66 11.66 1.32 12 2 C10.89718873 3.27200971 9.79269231 4.54255853 8.6875 5.8125 C8.07261719 6.52019531 7.45773438 7.22789062 6.82421875 7.95703125 C5 10 5 10 3.26953125 11.51171875 C1.56734626 13.18117115 1.56734626 13.18117115 2 17 C2.45375 16.505 2.9075 16.01 3.375 15.5 C5 14 5 14 7 14 C7.25523438 13.41734375 7.51046875 12.8346875 7.7734375 12.234375 C9.11741087 9.78611777 10.61810296 8.18256752 12.625 6.25 C13.25664063 5.63640625 13.88828125 5.0228125 14.5390625 4.390625 C15.26222656 3.70226562 15.26222656 3.70226562 16 3 C16 6 16 6 14 8.1875 C13.01 9.0846875 13.01 9.0846875 12 10 C13.05270463 11.15811388 13.05270463 11.15811388 15 12 C13.625 14 13.625 14 12 16 C11.34 16 10.68 16 10 16 C9.67 16.99 9.34 17.98 9 19 C7.0625 21.1875 7.0625 21.1875 5 23 C4.34 23 3.68 23 3 23 C2.67 23.99 2.34 24.98 2 26 C1.34 26 0.68 26 0 26 C0 17.42 0 8.84 0 0 Z " fill="#D0DCE0" transform="translate(104,125)"/>
<path d="M0 0 C1.98 0 3.96 0 6 0 C6 1.32 6 2.64 6 4 C1.71 4.66 -2.58 5.32 -7 6 C-7 6.33 -7 6.66 -7 7 C-9.14576637 7.02685938 -11.29162645 7.04633088 -13.4375 7.0625 C-14.63246094 7.07410156 -15.82742187 7.08570313 -17.05859375 7.09765625 C-20 7 -20 7 -21 6 C-23.91723844 5.98293788 -26.80815653 6.02982812 -29.72265625 6.12109375 C-30.61552841 6.14470474 -31.50840057 6.16831573 -32.42832947 6.19264221 C-35.30654122 6.26945187 -38.18450202 6.35308642 -41.0625 6.4375 C-44.80330997 6.54325977 -48.54419267 6.64591839 -52.28515625 6.74609375 C-53.19504303 6.77069672 -54.10492981 6.79529968 -55.04238892 6.82064819 C-63.03000833 7.02501708 -71.01008822 7.05790309 -79 7 C-75.47648607 3.6678205 -72.85660287 3.6575389 -68.10546875 3.7421875 C-67.07287682 3.7526561 -67.07287682 3.7526561 -66.01942444 3.76333618 C-64.5247088 3.77951615 -63.03005301 3.80226127 -61.53552246 3.83081055 C-57.51226544 3.90652768 -53.48866699 3.93218855 -49.46484375 3.9609375 C-48.62265289 3.96796692 -47.78046204 3.97499634 -46.91275024 3.98223877 C-37.0201953 4.04617946 -27.1377666 3.78148671 -17.25 3.5 C-16.38063812 3.47580994 -15.51127625 3.45161987 -14.61557007 3.42669678 C-9.74351079 3.29083989 -4.87168573 3.14863306 0 3 C0 2.01 0 1.02 0 0 Z " fill="#9A9A9A" transform="translate(162,167)"/>
<path d="M0 0 C0.99 0.33 1.98 0.66 3 1 C2.67 12.88 2.34 24.76 2 37 C1.34 37 0.68 37 0 37 C0 36.01 0 35.02 0 34 C-0.99 33.67 -1.98 33.34 -3 33 C-3.07419134 28.78250781 -3.1286204 24.56536189 -3.16479492 20.34741211 C-3.17987589 18.91277448 -3.2003438 17.47818292 -3.22631836 16.04370117 C-3.26273437 13.98084141 -3.27973243 11.91859142 -3.29296875 9.85546875 C-3.3086792 8.61434326 -3.32438965 7.37321777 -3.34057617 6.09448242 C-3 3 -3 3 -1.48168945 1.0715332 C-0.99273193 0.71792725 -0.50377441 0.36432129 0 0 Z " fill="#DFE7EA" transform="translate(189,111)"/>
<path d="M0 0 C9.57 0.33 19.14 0.66 29 1 C29 1.99 29 2.98 29 4 C58.04 4 87.08 4 117 4 C117 4.33 117 4.66 117 5 C107.25013401 5.17478216 97.50013301 5.3408856 87.75 5.5 C86.65873747 5.51781588 86.65873747 5.51781588 85.54542923 5.53599167 C57.0283462 5.99839619 28.52106568 6.12095448 0 6 C0 5.67 0 5.34 0 5 C8.91 4.67 17.82 4.34 27 4 C27.33 3.34 27.66 2.68 28 2 C18.76 2 9.52 2 0 2 C0 1.34 0 0.68 0 0 Z " fill="#BFBFBF" transform="translate(46,177)"/>
<path d="M0 0 C0.66 0.33 1.32 0.66 2 1 C1.67 2.32 1.34 3.64 1 5 C1.66 5 2.32 5 3 5 C4 7 4 7 4 16 C-1.94 16 -7.88 16 -14 16 C-12.39592098 12.79184196 -11.58286066 11.33641682 -9.1796875 8.984375 C-8.64472656 8.45585937 -8.10976562 7.92734375 -7.55859375 7.3828125 C-7.00300781 6.84398437 -6.44742188 6.30515625 -5.875 5.75 C-5.31167969 5.19570312 -4.74835938 4.64140625 -4.16796875 4.0703125 C-2.78313972 2.70895515 -1.39216796 1.35385141 0 0 Z " fill="#D9E1E5" transform="translate(126,135)"/>
<path d="M0 0 C18.81 0 37.62 0 57 0 C57 3.96 57 7.92 57 12 C52.71 12 48.42 12 44 12 C46.92986785 8.54926675 49.79810715 5.20189285 53 2 C35.51 1.67 18.02 1.34 0 1 C0 0.67 0 0.34 0 0 Z " fill="#C2C2C2" transform="translate(111,90)"/>
<path d="M0 0 C0.99 0.33 1.98 0.66 3 1 C3 5.62 3 10.24 3 15 C2.67 14.34 2.34 13.68 2 13 C1.34 13 0.68 13 0 13 C-0.33 11.68 -0.66 10.36 -1 9 C-3.14888676 11.12198832 -5.29418583 13.24739599 -7.4375 15.375 C-8.04916016 15.97828125 -8.66082031 16.5815625 -9.29101562 17.203125 C-9.87431641 17.78320312 -10.45761719 18.36328125 -11.05859375 18.9609375 C-11.59798584 19.49509277 -12.13737793 20.02924805 -12.69311523 20.57958984 C-14.10846977 21.98652388 -14.10846977 21.98652388 -15 24 C-16.98 24 -18.96 24 -21 24 C-19.66415278 19.99245833 -17.23106172 18.62523764 -14 16 C-13.67 15.34 -13.34 14.68 -13 14 C-12.34 14 -11.68 14 -11 14 C-10.75378906 13.41347656 -10.50757812 12.82695312 -10.25390625 12.22265625 C-8.80646635 9.65694503 -7.21778899 8.28738962 -4.9375 6.4375 C-1.66415861 3.81717494 -1.66415861 3.81717494 0 0 Z " fill="#F3FAFB" transform="translate(127,127)"/>
<path d="M0 0 C0.33 0 0.66 0 1 0 C1.12605388 6.55480175 1.12605388 6.55480175 0.50878906 8.73486328 C-0.25376061 12.12974612 -0.18336395 15.52918108 -0.203125 18.9921875 C-0.20882507 19.77457794 -0.21452515 20.55696838 -0.22039795 21.36306763 C-0.22983585 23.02230486 -0.23637713 24.68156073 -0.24023438 26.34082031 C-0.24983327 28.83173406 -0.28082157 31.32178352 -0.3125 33.8125 C-0.36923423 42.61576096 0.13990499 50.55892052 2.35253906 59.12158203 C2.96834589 61.85927529 3.12236311 64.20690094 3 67 C0.23559788 64.23559788 -0.2073383 61.0592418 -1.125 57.375 C-1.30675781 56.66859375 -1.48851562 55.9621875 -1.67578125 55.234375 C-2.1233641 53.49115757 -2.56249462 51.74577389 -3 50 C-3.33 50 -3.66 50 -4 50 C-4.27833517 33.04510586 -4.20772806 16.53036022 0 0 Z " fill="#989898" transform="translate(4,99)"/>
<path d="M0 0 C4.62 0 9.24 0 14 0 C14 1.98 14 3.96 14 6 C0.14 5.67 -13.72 5.34 -28 5 C-28 4.34 -28 3.68 -28 3 C-26.94872925 3.00785522 -26.94872925 3.00785522 -25.8762207 3.01586914 C-22.68832299 3.03670852 -19.50043964 3.04968232 -16.3125 3.0625 C-14.65831055 3.07506836 -14.65831055 3.07506836 -12.97070312 3.08789062 C-11.90400391 3.09111328 -10.83730469 3.09433594 -9.73828125 3.09765625 C-8.75899658 3.10289307 -7.77971191 3.10812988 -6.77075195 3.11352539 C-4.07530428 3.00308543 -1.62454361 2.60534166 1 2 C0.67 1.34 0.34 0.68 0 0 Z " fill="#A0A0A0" transform="translate(171,174)"/>
<path d="M0 0 C11.55 0 23.1 0 35 0 C35 2.64 35 5.28 35 8 C30.05 8 25.1 8 20 8 C20.66 7.67 21.32 7.34 22 7 C21.34 6.01 20.68 5.02 20 4 C20 3.01 20 2.02 20 1 C13.4 1 6.8 1 0 1 C0 0.67 0 0.34 0 0 Z " fill="#F3F3F3" transform="translate(111,109)"/>
<path d="M0 0 C8.25 0 16.5 0 25 0 C25 1.65 25 3.3 25 5 C12.625 5.495 12.625 5.495 0 6 C0 5.34 0 4.68 0 4 C1.32 3.34 2.64 2.68 4 2 C2.68 1.34 1.36 0.68 0 0 Z " fill="#DEDEDE" transform="translate(50,74)"/>
<path d="M0 0 C9.57 0.33 19.14 0.66 29 1 C29 2.32 29 3.64 29 5 C19.76 5 10.52 5 1 5 C1.66 4.67 2.32 4.34 3 4 C3 3.34 3 2.68 3 2 C2.01 1.67 1.02 1.34 0 1 C0 0.67 0 0.34 0 0 Z " fill="#E6E6E6" transform="translate(46,172)"/>
<path d="M0 0 C7.59 0 15.18 0 23 0 C23.33 6.93 23.66 13.86 24 21 C23.34 21 22.68 21 22 21 C21.80448662 19.39679026 21.61888017 17.79237014 21.4375 16.1875 C21.33308594 15.29417969 21.22867188 14.40085937 21.12109375 13.48046875 C21 11 21 11 22 8 C21.01 8.495 21.01 8.495 20 9 C19.34227572 12.02934491 19.34227572 12.02934491 19 15 C18.34 15 17.68 15 17 15 C16.67 14.34 16.34 13.68 16 13 C14.35 14.65 12.7 16.3 11 18 C10.34 17.67 9.68 17.34 9 17 C9.49371094 16.59910156 9.98742187 16.19820312 10.49609375 15.78515625 C14.25315454 12.45142625 16.41871185 10.18553295 16.9375 5.0625 C16.958125 3.721875 16.97875 2.38125 17 1 C11.39 1 5.78 1 0 1 C0 0.67 0 0.34 0 0 Z " fill="#CBCBCB" transform="translate(159,71)"/>
<path d="M0 0 C0.99 0.33 1.98 0.66 3 1 C3.0740719 5.37821909 3.12856375 9.75610782 3.16479492 14.13476562 C3.179896 15.62473909 3.20037858 17.11466801 3.22631836 18.60449219 C3.26264584 20.7442523 3.27971221 22.88342566 3.29296875 25.0234375 C3.3086792 26.31169434 3.32438965 27.59995117 3.34057617 28.92724609 C3.22818604 29.94125488 3.1157959 30.95526367 3 32 C2.01 32.66 1.02 33.32 0 34 C0 22.78 0 11.56 0 0 Z " fill="#E0E7EC" transform="translate(181,113)"/>
<path d="M0 0 C15.18 0 30.36 0 46 0 C46 0.99 46 1.98 46 3 C22.735 2.505 22.735 2.505 -1 2 C-0.67 1.34 -0.34 0.68 0 0 Z " fill="#B5B5B5" transform="translate(107,193)"/>
<path d="M0 0 C0.66 0.33 1.32 0.66 2 1 C1.21625 1.825 0.4325 2.65 -0.375 3.5 C-2.53494389 6.04218115 -3.44383728 8.05348872 -4.125 11.3125 C-4.558125 13.1378125 -4.558125 13.1378125 -5 15 C-5.99 15.33 -6.98 15.66 -8 16 C-9.315213 18.14587384 -10 19.47013105 -10 22 C-11.48612415 23.18889932 -12.9728878 24.37702107 -14.46484375 25.55859375 C-16.72960292 27.68504702 -17.8141008 30.16701858 -19 33 C-20 30 -20 30 -18.41796875 26.8203125 C-17.68459389 25.58249286 -16.94062696 24.35090209 -16.1875 23.125 C-13.80995616 19.18317338 -11.56338071 15.35099604 -10 11 C-9.01 11 -8.02 11 -7 11 C-6.773125 10.29875 -6.54625 9.5975 -6.3125 8.875 C-4.68343133 5.30656387 -2.59359269 2.93485489 0 0 Z " fill="#B0B0B0" transform="translate(33,43)"/>
<path d="M0 0 C13.2 0 26.4 0 40 0 C39.67 0.99 39.34 1.98 39 3 C26.3141797 3.20100772 13.66894665 2.58707468 1 2 C0.67 1.34 0.34 0.68 0 0 Z " fill="#A3A3A3" transform="translate(50,67)"/>
<path d="M0 0 C3.63 0 7.26 0 11 0 C11.33 0.66 11.66 1.32 12 2 C10.95285076 3.32477959 9.88655331 4.63443746 8.8125 5.9375 C8.22082031 6.66839844 7.62914063 7.39929688 7.01953125 8.15234375 C5 10 5 10 0 11 C0 7.37 0 3.74 0 0 Z " fill="#E3E7E8" transform="translate(104,125)"/>
<path d="M0 0 C0.33 0 0.66 0 1 0 C1 13.86 1 27.72 1 42 C-3.49391844 35.25912234 -2.11193595 25.17034657 -2.1875 17.25 C-2.20055176 16.45851563 -2.21360352 15.66703125 -2.22705078 14.8515625 C-2.2347696 9.5763042 -1.46447964 5.07068839 0 0 Z " fill="#B1B1B1" transform="translate(188,57)"/>
<path d="M0 0 C7.26 0 14.52 0 22 0 C22 1.32 22 2.64 22 4 C14.74 4 7.48 4 0 4 C0 2.68 0 1.36 0 0 Z " fill="#F4F4F4" transform="translate(53,69)"/>
<path d="M0 0 C6.6 0 13.2 0 20 0 C20 1.32 20 2.64 20 4 C13.4 4 6.8 4 0 4 C0 2.68 0 1.36 0 0 Z " fill="#ECECEC" transform="translate(148,113)"/>
<path d="M0 0 C8.58 0 17.16 0 26 0 C26 0.99 26 1.98 26 3 C17.42 3 8.84 3 0 3 C0 2.01 0 1.02 0 0 Z " fill="#F7F7F7" transform="translate(49,169)"/>
<path d="M0 0 C5.94 0 11.88 0 18 0 C18 1.32 18 2.64 18 4 C11.4 4 4.8 4 -2 4 C-1.34 2.68 -0.68 1.36 0 0 Z " fill="#F3F3F3" transform="translate(150,108)"/>
<path d="M0 0 C0.66 0 1.32 0 2 0 C2 0.99 2 1.98 2 3 C8.6 3 15.2 3 22 3 C22 3.33 22 3.66 22 4 C15.4 4 8.8 4 2 4 C2 5.32 2 6.64 2 8 C3.32 8.33 4.64 8.66 6 9 C4.77023438 9.07347656 4.77023438 9.07347656 3.515625 9.1484375 C2.43796875 9.22320312 1.3603125 9.29796875 0.25 9.375 C-1.35101563 9.47941406 -1.35101563 9.47941406 -2.984375 9.5859375 C-5.80206432 9.9728223 -7.5830366 10.55686166 -10 12 C-9.67 11.34 -9.34 10.68 -9 10 C-11.97 9.505 -11.97 9.505 -15 9 C-15 8.67 -15 8.34 -15 8 C-10.05 8 -5.1 8 0 8 C0 6.68 0 5.36 0 4 C-4.29 4 -8.58 4 -13 4 C-13 3.67 -13 3.34 -13 3 C-8.71 3 -4.42 3 0 3 C0 2.01 0 1.02 0 0 Z " fill="#6D6D6D" transform="translate(146,109)"/>
<path d="M0 0 C2.97 0 5.94 0 9 0 C7.68 0.33 6.36 0.66 5 1 C5 1.66 5 2.32 5 3 C4.01 3 3.02 3 2 3 C4.31 7.95 6.62 12.9 9 18 C8.34 18.33 7.68 18.66 7 19 C6.67 17.35 6.34 15.7 6 14 C4.35 14.66 2.7 15.32 1 16 C0 15 0 15 -0.09765625 11.62109375 C-0.09098369 10.22652923 -0.07902532 8.83198257 -0.0625 7.4375 C-0.05798828 6.72658203 -0.05347656 6.01566406 -0.04882812 5.28320312 C-0.03700864 3.52209987 -0.01907263 1.76103964 0 0 Z " fill="#DFDFDF" transform="translate(87,90)"/>
<path d="M0 0 C12.54 0 25.08 0 38 0 C37.67 0.66 37.34 1.32 37 2 C35.68128906 1.97679688 34.36257812 1.95359375 33.00390625 1.9296875 C21.49525683 1.79192381 10.38773791 2.32840544 -1 4 C-0.67 2.68 -0.34 1.36 0 0 Z " fill="#F0F0F0" transform="translate(104,0)"/>
<path d="M0 0 C1.32 0.66 2.64 1.32 4 2 C1.77553498 9.34073457 -3.59399252 14.18690031 -10 18 C-10.27734375 15.78515625 -10.27734375 15.78515625 -10 13 C-8.06640625 10.68359375 -8.06640625 10.68359375 -5.5625 8.4375 C-1.54447322 4.91835687 -1.54447322 4.91835687 0 0 Z " fill="#F0F9FB" transform="translate(115,125)"/>
<path d="M0 0 C0.33 0.66 0.66 1.32 1 2 C0.34 2 -0.32 2 -1 2 C-1 2.99 -1 3.98 -1 5 C-0.34 5.33 0.32 5.66 1 6 C-3.95 6 -8.9 6 -14 6 C-14 4.35 -14 2.7 -14 1 C-9.38 0.67 -4.76 0.34 0 0 Z " fill="#DCDCDC" transform="translate(90,73)"/>
<path d="M0 0 C1.98 0 3.96 0 6 0 C6 1.32 6 2.64 6 4 C1.71 4.66 -2.58 5.32 -7 6 C-7 6.33 -7 6.66 -7 7 C-11.29 7 -15.58 7 -20 7 C-20.33 6.01 -20.66 5.02 -21 4 C-10.605 3.505 -10.605 3.505 0 3 C0 2.01 0 1.02 0 0 Z " fill="#8B8B8B" transform="translate(162,167)"/>
<path d="M0 0 C0 3.63 0 7.26 0 11 C-3.63 11 -7.26 11 -11 11 C-1.69230769 0 -1.69230769 0 0 0 Z " fill="#F7F7F7" transform="translate(168,91)"/>
<path d="M0 0 C5.28 0 10.56 0 16 0 C16 1.32 16 2.64 16 4 C10.72 4 5.44 4 0 4 C0 2.68 0 1.36 0 0 Z " fill="#F6F6F6" transform="translate(169,162)"/>
<path d="M0 0 C4.95 0 9.9 0 15 0 C15 1.32 15 2.64 15 4 C10.05 4 5.1 4 0 4 C0 2.68 0 1.36 0 0 Z " fill="#F8F8F8" transform="translate(169,168)"/>
<path d="M0 0 C2.4375 1.625 2.4375 1.625 5 4 C5.14050781 4.90621094 5.28101563 5.81242188 5.42578125 6.74609375 C6.11772312 10.66709769 7.6124245 13.09050679 9.75 16.4375 C10.10835937 17.00299561 10.46671875 17.56849121 10.8359375 18.15112305 C13.42361495 22.2030955 16.13036532 26.1439284 19 30 C18.67 30.66 18.34 31.32 18 32 C2 11.86394558 2 11.86394558 2 4 C1.34 4 0.68 4 0 4 C0 2.68 0 1.36 0 0 Z " fill="#707070" transform="translate(11,177)"/>
<path d="M0 0 C1.93166016 0.01740234 1.93166016 0.01740234 3.90234375 0.03515625 C5.19269531 0.04417969 6.48304687 0.05320312 7.8125 0.0625 C8.81152344 0.07410156 9.81054688 0.08570312 10.83984375 0.09765625 C10.83984375 0.42765625 10.83984375 0.75765625 10.83984375 1.09765625 C6.87984375 1.09765625 2.91984375 1.09765625 -1.16015625 1.09765625 C-0.47953125 2.37640625 0.20109375 3.65515625 0.90234375 4.97265625 C2.0625 7.15234375 2.0625 7.15234375 2.83984375 9.09765625 C2.50984375 9.75765625 2.17984375 10.41765625 1.83984375 11.09765625 C-0.14015625 7.63265625 -0.14015625 7.63265625 -2.16015625 4.09765625 C-2.49015625 12.01765625 -2.82015625 19.93765625 -3.16015625 28.09765625 C-3.49015625 28.09765625 -3.82015625 28.09765625 -4.16015625 28.09765625 C-4.18901963 23.61850297 -4.20690812 19.13937334 -4.22265625 14.66015625 C-4.23103516 13.38076172 -4.23941406 12.10136719 -4.24804688 10.78320312 C-4.25126953 9.56826172 -4.25449219 8.35332031 -4.2578125 7.1015625 C-4.26304932 5.97564697 -4.26828613 4.84973145 -4.27368164 3.68969727 C-4.10676181 -0.12145946 -3.88868243 0.12016942 0 0 Z " fill="#B5B5B3" transform="translate(99.16015625,108.90234375)"/>
<path d="M0 0 C11.55 0 23.1 0 35 0 C35 0.99 35 1.98 35 3 C31.04 3 27.08 3 23 3 C23 2.67 23 2.34 23 2 C11.615 1.505 11.615 1.505 0 1 C0 0.67 0 0.34 0 0 Z " fill="#C3C3C3" transform="translate(111,109)"/>
<path d="M0 0 C0.66 0.33 1.32 0.66 2 1 C1.34 1.66 0.68 2.32 0 3 C0 4.32 0 5.64 0 7 C0.99 6.01 1.98 5.02 3 4 C3.66 4.33 4.32 4.66 5 5 C3.35 6.65 1.7 8.3 0 10 C0.33 10.33 0.66 10.66 1 11 C1.66 11 2.32 11 3 11 C3 10.34 3 9.68 3 9 C3.66 9.33 4.32 9.66 5 10 C4.01 11.485 4.01 11.485 3 13 C2.34 13 1.68 13 1 13 C0.67 13.99 0.34 14.98 0 16 C-0.66 16 -1.32 16 -2 16 C-2 11.05 -2 6.1 -2 1 C-1.34 0.67 -0.68 0.34 0 0 Z " fill="#C0C7CD" transform="translate(106,135)"/>
<path d="M0 0 C6.93 0.495 6.93 0.495 14 1 C14 1.66 14 2.32 14 3 C10.85069107 4.04976964 8.61185544 4.10131595 5.3125 4.0625 C4.31863281 4.05347656 3.32476562 4.04445312 2.30078125 4.03515625 C1.16189453 4.01775391 1.16189453 4.01775391 0 4 C0 2.68 0 1.36 0 0 Z " fill="#F5F5F5" transform="translate(76,173)"/>
<path d="M0 0 C3.3 0 6.6 0 10 0 C9.67 1.65 9.34 3.3 9 5 C6.03 5 3.06 5 0 5 C0 3.35 0 1.7 0 0 Z " fill="#F6F6F6" transform="translate(76,80)"/>
<path d="M0 0 C0 3.68072261 -0.73731743 4.19508747 -3.25 6.75 C-3.85328125 7.38421875 -4.4565625 8.0184375 -5.078125 8.671875 C-7 10 -7 10 -9.234375 9.703125 C-10.10835938 9.35507813 -10.10835938 9.35507813 -11 9 C-9.73548068 7.68141572 -8.46314525 6.37032369 -7.1875 5.0625 C-6.47980469 4.33160156 -5.77210937 3.60070312 -5.04296875 2.84765625 C-3 1 -3 1 0 0 Z " fill="#EDF7FB" transform="translate(124,141)"/>
<path d="M0 0 C1.98 0 3.96 0 6 0 C6 1.32 6 2.64 6 4 C2.84493858 4.93619813 0.03413498 5.1057123 -3.25 5.0625 C-4.14203125 5.05347656 -5.0340625 5.04445312 -5.953125 5.03515625 C-6.62859375 5.02355469 -7.3040625 5.01195312 -8 5 C-8 4.67 -8 4.34 -8 4 C-5.36 3.67 -2.72 3.34 0 3 C0 2.01 0 1.02 0 0 Z " fill="#C1C1C1" transform="translate(162,167)"/>
<path d="M0 0 C2.31 0.33 4.62 0.66 7 1 C7 1.66 7 2.32 7 3 C7.66 3.33 8.32 3.66 9 4 C5.37 4 1.74 4 -2 4 C-1.34 2.68 -0.68 1.36 0 0 Z " fill="#EDEDED" transform="translate(150,108)"/>
<path d="M0 0 C1.98 0 3.96 0 6 0 C5.67 1.32 5.34 2.64 5 4 C6.32 4.33 7.64 4.66 9 5 C8.67 5.66 8.34 6.32 8 7 C5.36 6.67 2.72 6.34 0 6 C0 4.02 0 2.04 0 0 Z " fill="#E5E5E5" transform="translate(186,167)"/>
<path d="M0 0 C1.17046875 0.10183594 2.3409375 0.20367187 3.546875 0.30859375 C4.43890625 0.39238281 5.3309375 0.47617188 6.25 0.5625 C6.25 0.8925 6.25 1.2225 6.25 1.5625 C4.27 1.5625 2.29 1.5625 0.25 1.5625 C0.25 2.2225 0.25 2.8825 0.25 3.5625 C-3.38 3.2325 -7.01 2.9025 -10.75 2.5625 C-10.75 1.9025 -10.75 1.2425 -10.75 0.5625 C-7.06599416 -0.66854155 -3.83525024 -0.34517252 0 0 Z " fill="#898989" transform="translate(161.75,165.4375)"/>
<path d="M0 0 C-0.33 0.99 -0.66 1.98 -1 3 C-1.66 3 -2.32 3 -3 3 C-3.2475 3.804375 -3.495 4.60875 -3.75 5.4375 C-5 8 -5 8 -7.125 8.8125 C-7.74375 8.874375 -8.3625 8.93625 -9 9 C-7.39537511 4.18612534 -5.52128094 0 0 0 Z " fill="#EFF7FA" transform="translate(113,127)"/>
<path d="M0 0 C0.99 0.33 1.98 0.66 3 1 C3 4.63 3 8.26 3 12 C2.67 12 2.34 12 2 12 C1.67 9.69 1.34 7.38 1 5 C0.01 5.99 -0.98 6.98 -2 8 C-2.6875 5.6875 -2.6875 5.6875 -3 3 C-1.5625 1.1875 -1.5625 1.1875 0 0 Z " fill="#EFF6F7" transform="translate(189,111)"/>
<path d="M0 0 C0 0.99 0 1.98 0 3 C-4.95 3 -9.9 3 -15 3 C-14.67 2.34 -14.34 1.68 -14 1 C-11.34765625 0.5859375 -11.34765625 0.5859375 -8.0625 0.375 C-6.98097656 0.30023438 -5.89945313 0.22546875 -4.78515625 0.1484375 C-3.19159853 0.06350736 -1.59581933 0 0 0 Z " fill="#F5F5F5" transform="translate(168,103)"/>
<path d="M0 0 C0 2.31 0 4.62 0 7 C-0.66 7 -1.32 7 -2 7 C-2.33 6.34 -2.66 5.68 -3 5 C-4.65 6.65 -6.3 8.3 -8 10 C-8.66 9.67 -9.32 9.34 -10 9 C-8.52386015 7.49702124 -7.04400843 5.99768715 -5.5625 4.5 C-4.73878906 3.6646875 -3.91507813 2.829375 -3.06640625 1.96875 C-1 0 -1 0 0 0 Z " fill="#9E9E9E" transform="translate(178,79)"/>
<path d="M0 0 C1.32 0.33 2.64 0.66 4 1 C3.04578192 2.14926266 2.08647955 3.29430541 1.125 4.4375 C0.59132812 5.07558594 0.05765625 5.71367187 -0.4921875 6.37109375 C-2 8 -2 8 -4 9 C-3.67 6.69 -3.34 4.38 -3 2 C-2.34 2 -1.68 2 -1 2 C-0.67 1.34 -0.34 0.68 0 0 Z " fill="#ECECEC" transform="translate(213,216)"/>
<path d="M0 0 C0 1.32 0 2.64 0 4 C-2.64 4 -5.28 4 -8 4 C-8 3.01 -8 2.02 -8 1 C-5.07175348 0.02391783 -3.04386724 -0.08226668 0 0 Z " fill="#F7F7F7" transform="translate(168,162)"/>
<path d="M0 0 C0.99 0 1.98 0 3 0 C3 1.32 3 2.64 3 4 C-1.95 4 -6.9 4 -12 4 C-12 3.67 -12 3.34 -12 3 C-10.95199219 2.92652344 -10.95199219 2.92652344 -9.8828125 2.8515625 C-8.97273437 2.77679688 -8.06265625 2.70203125 -7.125 2.625 C-6.22007812 2.55539063 -5.31515625 2.48578125 -4.3828125 2.4140625 C-1.82058097 2.20431868 -1.82058097 2.20431868 0 0 Z " fill="#C2C2C2" transform="translate(143,113)"/>
<path d="M0 0 C3.63 0 7.26 0 11 0 C11 0.99 11 1.98 11 3 C5.71910976 3.30466674 4.422832 3.317124 0 0 Z " fill="#F6F6F6" transform="translate(173,174)"/>
<path d="M0 0 C0.66 0.33 1.32 0.66 2 1 C0.38405168 3.04119788 -1.2856382 5.04072937 -3 7 C-3.66 7 -4.32 7 -5 7 C-5 7.99 -5 8.98 -5 10 C-6.32 9.67 -7.64 9.34 -9 9 C-6.03 6.03 -3.06 3.06 0 0 Z " fill="#CED8DF" transform="translate(126,141)"/>
<path d="M0 0 C0.66 0 1.32 0 2 0 C2 1.65 2 3.3 2 5 C-3.53846154 4.38461538 -3.53846154 4.38461538 -5.875 2.4375 C-6.24625 1.963125 -6.6175 1.48875 -7 1 C-5.5459375 1.0309375 -5.5459375 1.0309375 -4.0625 1.0625 C-1.12534105 1.35618499 -1.12534105 1.35618499 0 0 Z " fill="#D6D6D6" transform="translate(144,154)"/>
<path d="M0 0 C0.99 0 1.98 0 3 0 C3.33 2.64 3.66 5.28 4 8 C2.68 8 1.36 8 0 8 C0 5.36 0 2.72 0 0 Z " fill="#F7F7F7" transform="translate(178,62)"/>
<path d="M0 0 C2.4375 1.4375 2.4375 1.4375 5 4 C5.73151889 6.99304558 5.92773687 9.92553213 6 13 C3.49701566 10.06171403 2.53069061 7.82097239 2 4 C1.34 4 0.68 4 0 4 C0 2.68 0 1.36 0 0 Z " fill="#8F8F8F" transform="translate(11,177)"/>
<path d="M0 0 C2.97 0 5.94 0 9 0 C8.01 1.485 8.01 1.485 7 3 C3.375 3.1875 3.375 3.1875 0 3 C0 2.01 0 1.02 0 0 Z " fill="#F6F6F6" transform="translate(76,169)"/>
<path d="M0 0 C6.52307692 -0.36923077 6.52307692 -0.36923077 8.9375 1.5 C9.288125 1.995 9.63875 2.49 10 3 C7.36 3.33 4.72 3.66 2 4 C1.34 2.68 0.68 1.36 0 0 Z " fill="#F4F4F4" transform="translate(164,174)"/>
<path d="M0 0 C0.99 0.99 1.98 1.98 3 3 C3.33 2.34 3.66 1.68 4 1 C4.66 1 5.32 1 6 1 C4.55746343 4.36591866 2.66735273 6.51047079 0 9 C0 6.03 0 3.06 0 0 Z " fill="#C4C8CD" transform="translate(104,125)"/>
<path d="M0 0 C1.65 0 3.3 0 5 0 C3.38405168 2.04119788 1.7143618 4.04072937 0 6 C-0.66 6 -1.32 6 -2 6 C-1.34 4.02 -0.68 2.04 0 0 Z " fill="#F6F6F6" transform="translate(133,118)"/>
<path d="M0 0 C0.66 0.33 1.32 0.66 2 1 C-0.64 4.3 -3.28 7.6 -6 11 C-6.33 10.34 -6.66 9.68 -7 9 C-4.69 6.03 -2.38 3.06 0 0 Z " fill="#7A7A7A" transform="translate(33,43)"/>
<path d="M0 0 C0 3 0 3 -1.75 4.82421875 C-2.4925 5.43910156 -3.235 6.05398437 -4 6.6875 C-4.7425 7.31011719 -5.485 7.93273438 -6.25 8.57421875 C-6.8275 9.04472656 -7.405 9.51523437 -8 10 C-8 7 -8 7 -6.25 5.17578125 C-5.5075 4.56089844 -4.765 3.94601563 -4 3.3125 C-3.2575 2.68988281 -2.515 2.06726562 -1.75 1.42578125 C-1.1725 0.95527344 -0.595 0.48476563 0 0 Z " fill="#717171" transform="translate(44,33)"/>
<path d="M0 0 C1.65 0 3.3 0 5 0 C5.33 0.99 5.66 1.98 6 3 C3.03 3 0.06 3 -3 3 C-2.01 2.67 -1.02 2.34 0 2 C0 1.34 0 0.68 0 0 Z " fill="#F5F5F5" transform="translate(90,174)"/>
<path d="M0 0 C1.65 0 3.3 0 5 0 C5 0.99 5 1.98 5 3 C3.35 3.33 1.7 3.66 0 4 C0 2.68 0 1.36 0 0 Z " fill="#D0D0D0" transform="translate(76,173)"/>
<path d="M0 0 C0 3 0 3 -2.5 5.6875 C-3.325 6.450625 -4.15 7.21375 -5 8 C-5.66 7.67 -6.32 7.34 -7 7 C-2.25 1.125 -2.25 1.125 0 0 Z " fill="#CCD2D7" transform="translate(126,128)"/>
<path d="M0 0 C0.33 0 0.66 0 1 0 C1 1.98 1 3.96 1 6 C-0.65 6 -2.3 6 -4 6 C-4.33 5.01 -4.66 4.02 -5 3 C-3.35 3 -1.7 3 0 3 C0 2.01 0 1.02 0 0 Z " fill="#B2B2B2" transform="translate(184,174)"/>
<path d="M0 0 C1.32 0.33 2.64 0.66 4 1 C3.01 1.495 3.01 1.495 2 2 C3.65 2.33 5.3 2.66 7 3 C6.34 3.66 5.68 4.32 5 5 C2.69 4.34 0.38 3.68 -2 3 C-1.34 2.01 -0.68 1.02 0 0 Z " fill="#EEEEEE" transform="translate(92,164)"/>
<path d="M0 0 C0.66 0.33 1.32 0.66 2 1 C1.01 2.485 1.01 2.485 0 4 C-0.66 4 -1.32 4 -2 4 C-2.33 4.99 -2.66 5.98 -3 7 C-3.66 7 -4.32 7 -5 7 C-4.67 5.68 -4.34 4.36 -4 3 C-2.68 2.67 -1.36 2.34 0 2 C0 1.34 0 0.68 0 0 Z " fill="#CCD2D6" transform="translate(109,144)"/>
<path d="M0 0 C1.98 0 3.96 0 6 0 C5.67 1.65 5.34 3.3 5 5 C4.01 5 3.02 5 2 5 C1.34 3.35 0.68 1.7 0 0 Z " fill="#E0E0E0" transform="translate(80,80)"/>
<path d="M0 0 C0.66 0.33 1.32 0.66 2 1 C0.95125002 3.62187494 0.35068687 4.79371361 -2.125 6.25 C-2.74375 6.4975 -3.3625 6.745 -4 7 C-3.43628586 3.73045798 -2.50037734 2.17424117 0 0 Z " fill="#EFF7FA" transform="translate(109,141)"/>
<path d="M0 0 C0.66 0.33 1.32 0.66 2 1 C0.68 2.65 -0.64 4.3 -2 6 C-2.99 5.67 -3.98 5.34 -5 5 C-3.35 3.35 -1.7 1.7 0 0 Z " fill="#F0F0F0" transform="translate(57,24)"/>
<path d="M0 0 C0.66 0.33 1.32 0.66 2 1 C2 1.66 2 2.32 2 3 C-0.5 4.625 -0.5 4.625 -3 6 C-3 4.68 -3 3.36 -3 2 C-2.01 1.34 -1.02 0.68 0 0 Z " fill="#F4F4F4" transform="translate(65,19)"/>
</svg>
